<?xml version="1.0" standalone="no"?>
<!DOCTYPE svg PUBLIC "-//W3C//DTD SVG 20010904//EN"
 "http://www.w3.org/TR/2001/REC-SVG-20010904/DTD/svg10.dtd">
<svg version="1.0" xmlns="http://www.w3.org/2000/svg"
 width="2801.000000pt" height="2801.000000pt" viewBox="0 0 2801.000000 2801.000000"
 preserveAspectRatio="xMidYMid meet">
<metadata>
Created by potrace 1.11, written by Peter Selinger 2001-2013
</metadata>
<g transform="translate(0.000000,2801.000000) scale(0.100000,-0.100000)"
fill="#000000" stroke="none">
<path d="M2769 26136 c-2 -2 -44 -7 -94 -11 -49 -3 -92 -8 -95 -10 -3 -1 -32
-6 -65 -10 -32 -3 -62 -8 -65 -10 -3 -2 -24 -6 -47 -10 -133 -19 -457 -116
-593 -177 -381 -171 -655 -355 -921 -618 -190 -189 -306 -333 -440 -546 -85
-136 -190 -345 -239 -474 -18 -47 -36 -94 -40 -105 -11 -27 -66 -202 -75 -240
-11 -49 -13 -56 -34 -155 -11 -52 -22 -115 -25 -140 -3 -25 -8 -55 -10 -68 -3
-12 -9 -59 -13 -105 -10 -106 -11 -14958 0 -15057 4 -41 10 -88 12 -105 3 -16
7 -47 10 -68 8 -60 34 -183 60 -287 87 -344 244 -683 459 -985 105 -148 338
-406 453 -502 34 -28 54 -45 108 -88 28 -22 52 -43 55 -46 6 -7 246 -169 279
-187 79 -46 106 -60 201 -107 157 -79 419 -180 517 -199 10 -2 63 -16 118 -30
87 -22 197 -41 340 -60 126 -17 573 -20 3903 -20 l3652 0 0 -638 0 -638 -3212
-1 c-1767 0 -3225 -2 -3239 -4 -154 -20 -253 -54 -383 -130 -87 -50 -227 -186
-287 -280 -38 -58 -100 -187 -105 -217 -1 -5 -2 -9 -4 -10 -1 -2 -3 -10 -5
-18 -58 -255 -39 -465 60 -661 l25 -48 -26 -88 c-34 -116 -40 -287 -13 -409
18 -83 59 -197 87 -244 63 -104 86 -134 162 -209 68 -67 160 -132 245 -171 64
-29 92 -38 190 -60 77 -18 455 -18 10330 -19 8283 0 10262 3 10315 13 223 44
407 156 553 337 33 41 133 242 141 284 4 17 9 41 12 55 21 102 26 264 10 345
-13 65 -49 173 -77 231 l-30 61 20 74 c91 338 2 672 -242 911 -131 127 -318
222 -484 244 -32 4 -61 9 -65 10 -5 1 -1428 2 -3163 3 l-3155 1 0 638 0 638
3658 0 c2011 0 3701 3 3754 7 100 7 376 44 389 53 4 2 29 9 56 14 26 5 57 11
68 14 29 7 227 66 245 73 8 3 20 7 25 9 6 1 39 14 75 27 366 142 705 358 990
631 302 291 548 656 697 1036 81 209 108 300 158 537 3 13 7 31 9 41 2 11 7
43 11 73 4 30 8 56 10 59 2 3 7 53 12 110 10 136 11 14961 0 15060 -42 383
-137 711 -303 1045 -55 110 -90 170 -197 339 -7 11 -17 27 -24 35 -254 339
-493 570 -788 766 -170 113 -360 212 -554 290 -187 74 -475 150 -671 175 -47
6 -98 14 -115 18 -32 7 -22569 15 -22576 8z"/>
</g>
</svg>
